<svg width="25" height="26" viewBox="0 0 25 26" fill="none" xmlns="http://www.w3.org/2000/svg">
<g id="typo3">
<path id="Vector" d="M10.2881 4.32812C10.2881 3.12207 10.5518 2.74609 10.9668 2.4043C7.57324 2.81934 3.67676 4.06445 2.3584 5.64648C2.09473 6.02246 1.9043 6.66211 1.9043 7.45801C1.9043 12.5117 7.11914 23.9375 10.8936 23.9375C12.666 23.9375 15.6445 21.0322 18.0566 17.1504C17.7148 17.2627 17.4902 17.2627 17.1533 17.2627C14.3604 17.2627 10.2881 7.57031 10.2881 4.32812ZM16.2842 2.0625C14.8145 2.0625 14.248 2.32617 14.248 3.83496C14.248 7.07715 16.875 13.5273 19.2139 13.5273C20.498 13.5273 23.0615 8.65918 23.0615 4.62598C23.0615 2.62891 19.79 2.0625 16.2842 2.0625Z" fill="#4378FF"/>
</g>
</svg>
