<svg width="24" height="24" viewBox="0 0 24 24" fill="none" xmlns="http://www.w3.org/2000/svg">
<g id="Sign_in_circle_duotone_line">
<path id="Ellipse 48" d="M18.3 12C18.3 7.41604 14.584 3.7 10 3.7C5.41604 3.7 1.7 7.41604 1.7 12C1.7 16.584 5.41604 20.3 10 20.3C14.584 20.3 18.3 16.584 18.3 12Z" fill="#4378FF" stroke="#4378FF" stroke-width="0.6"/>
<path id="Ellipse 47" d="M19.0711 19.0711C17.6725 20.4696 15.8907 21.422 13.9509 21.8079C12.0111 22.1937 10.0004 21.9957 8.17317 21.2388C6.3459 20.4819 4.78412 19.2002 3.6853 17.5557C2.58649 15.9112 2 13.9778 2 12C2 10.0222 2.58649 8.08879 3.6853 6.4443C4.78412 4.79981 6.3459 3.51808 8.17316 2.76121C10.0004 2.00433 12.0111 1.8063 13.9509 2.19215C15.8907 2.578 17.6725 3.53041 19.0711 4.92893" stroke="#EDF2FF" stroke-width="1.2"/>
<path id="Vector 9" d="M9 12L8.53148 11.6252L8.23163 12L8.53148 12.3748L9 12ZM21 12.6C21.3314 12.6 21.6 12.3314 21.6 12C21.6 11.6686 21.3314 11.4 21 11.4V12.6ZM12.5315 6.62518L8.53148 11.6252L9.46852 12.3748L13.4685 7.37482L12.5315 6.62518ZM8.53148 12.3748L12.5315 17.3748L13.4685 16.6252L9.46852 11.6252L8.53148 12.3748ZM9 12.6H21V11.4H9V12.6Z" fill="#EDF2FF"/>
</g>
</svg>
