<svg width="137" height="21" viewBox="0 0 137 21" fill="none" xmlns="http://www.w3.org/2000/svg">
<path id="Vector 12" d="M6.21263 0.876136C4.07117 1.53096 2.57618 3.09465 1.12687 4.72339C-0.118494 6.12295 0.754085 9.6111 1.48898 10.3068C3.39069 12.1071 7.84926 13.7899 10.2509 14.6512C17.6486 17.3041 25.4852 18.7508 33.3213 19.177C42.9433 19.7002 52.3705 18.4589 61.7343 16.3047C68.9159 14.6525 75.9701 13.5238 83.329 14.6577C87.8956 15.3614 92.3506 16.578 96.8471 17.6157C101.23 18.627 105.623 19.3829 110.095 19.8687C116.464 20.5605 122.903 20.5548 129.272 19.9082C131.25 19.7073 133.147 19.4172 134.872 18.3535C135.713 17.8345 136.599 17.0636 136.446 15.9753C136.224 14.3984 134.524 13.1818 133.37 12.2993C131.41 10.801 129.108 9.68402 126.861 8.68923C120.74 5.97906 114.215 4.57204 107.651 3.43219C100.784 2.23977 93.9331 1.68466 86.9655 2.02241C80.9915 2.31199 75.1778 3.66614 69.2839 4.57846C63.3782 5.49261 57.4443 5.66193 51.4969 5.02643C44.4586 4.27435 37.396 3.2482 30.4161 2.07511C24.61 1.09929 18.8448 0.137286 12.9453 0.00655056C10.6423 -0.0444869 8.42791 0.198735 6.21263 0.876136Z" fill="#4378FF" fill-opacity="0.7"/>
</svg>
